<svg version="1.1" xmlns="http://www.w3.org/2000/svg" xmlns:xlink="http://www.w3.org/1999/xlink" width="79.46892" height="24.22324" viewBox="0,0,79.46892,24.22324"><g transform="translate(-197.62101,-167.2426)"><g data-paper-data="{&quot;isPaintingLayer&quot;:true}" fill-rule="nonzero" stroke-linecap="butt" stroke-linejoin="miter" stroke-miterlimit="10" stroke-dasharray="" stroke-dashoffset="0" style="mix-blend-mode: normal"><path d="M275.15029,188.65599c-0.40638,0.44127 -1.15347,0.96259 -2.41777,0.96259h-0.34686c-0.21345,0.01231 -0.3797,0.01847 -0.51927,0.01847c-0.08415,0 -0.1724,0.00616 -0.26271,0.01437c-0.06978,0.02463 -0.20935,0.07389 -0.45769,0.17035c-0.67525,0.27092 -1.19862,0.39407 -1.69942,0.39407c-0.70193,0 -1.36282,-0.2504 -1.90876,-0.72246c-0.32223,-0.27708 -0.57058,-0.60957 -0.73682,-0.97696c-0.26066,-0.02052 -0.5911,-0.05131 -1.0139,-0.08825h-1.06932c-0.04926,0 -0.09646,-0.00205 -0.14367,-0.00616c-0.53363,-0.03284 -1.04879,-0.18677 -1.52701,-0.45769c-0.8887,-0.50285 -1.41823,-1.36897 -1.41823,-2.3172c0,-1.03443 0.57879,-1.95597 1.54959,-2.46703c0.03079,-0.01847 0.06363,-0.03489 0.09646,-0.04926c0.06978,-0.03284 0.13957,-0.06157 0.20935,-0.09031c0.00205,-0.05131 0.00205,-0.10467 0.0041,-0.15804v-1.46544c0,-0.06157 0.00205,-0.12109 0.00616,-0.18061c-0.11494,-0.48232 -0.10262,-0.97491 0.03694,-1.43055c0,-0.02668 0,-0.06157 -0.00205,-0.10673c-0.0041,-0.04515 -0.0041,-0.09031 -0.0041,-0.13341c0,-0.15599 0.01026,-0.3366 0.039,-0.60136c0.00616,-0.06773 0.01231,-0.12109 0.01437,-0.16419c-0.00205,-0.04926 -0.01437,-0.27708 -0.07799,-1.00569c-1.20478,-0.4659 -1.78972,-1.50443 -1.92108,-2.42598c-0.06363,-0.44333 0.00616,-0.89897 0.20319,-1.3033c0.55621,-1.14731 1.6871,-1.83282 3.02529,-1.83282c0.0821,0 0.16419,0.0041 0.24424,0.01231c0.0862,0.00821 0.35097,0.03079 0.79019,0.06773c0.37765,0.03284 0.58494,0.039 0.69578,0.039h0.07389c0.03489,-0.0041 0.06157,-0.00616 0.09646,-0.00821c0.3797,-0.02052 0.6342,-0.03489 0.76145,-0.0431c0.00821,0 0.01847,-0.00205 0.02668,-0.00205c0.0431,-0.0431 0.08825,-0.0862 0.13546,-0.12725c0.65678,-0.57673 1.47775,-0.87844 2.37467,-0.87844c0.30992,0 0.5439,0.0041 0.71835,0.01231c0.13957,0.00616 0.25245,0.01642 0.35712,0.03079c0.02463,0.00205 0.05131,0.00616 0.07799,0.01231h0.83329c0.039,-0.0041 0.09031,-0.01026 0.15599,-0.01642c0.25655,-0.02668 0.45975,-0.039 0.63831,-0.039c1.28277,0 2.31515,0.6301 2.78105,1.69326c0.17856,0.38791 0.27092,0.79019 0.27092,1.19657c0,0.95438 -0.52953,1.96828 -1.68094,2.45061c0.03694,0.74914 0.05542,1.48186 0.05542,2.1961v4.7206c0.0041,0.04105 0.01231,0.09031 0.02052,0.14778c0.00205,0.01437 0.0041,0.03079 0.00616,0.04515c0.02052,0.14778 0.03694,0.29555 0.04926,0.44333c0.93386,0.40433 1.56601,1.25609 1.65016,2.34388c0.04515,0.53979 -0.06157,1.33613 -0.79019,2.12632z" fill="#ffffff" stroke="#ffffff" stroke-width="2.5"/><path d="M263.62283,182.67518c-0.13549,1.46136 -0.57486,2.57044 -1.33942,3.37757c-0.44518,0.47034 -1.10521,0.84197 -2.20462,1.23683c-0.02129,0.00774 -0.04452,0.01548 -0.06775,0.02323c-0.52648,0.16839 -1.10134,0.2555 -1.70717,0.2555c-0.92327,0 -1.78073,-0.18194 -2.54915,-0.54002c-1.13618,-0.53035 -1.70137,-1.27167 -1.98203,-1.89686c-0.04065,-0.06775 -0.08323,-0.13743 -0.12388,-0.21291c-0.11613,-0.21098 -0.19743,-0.43937 -0.23614,-0.67745c-0.05613,-0.33292 -0.14517,-0.83423 -0.26711,-1.50007c-0.02323,-0.12775 -0.03484,-0.2555 -0.03484,-0.38518v-1.68395c0,-0.20904 0.01742,-0.51486 0.14323,-1.34329c0.12194,-0.811 0.1742,-1.06263 0.27098,-1.31038c0.25356,-0.67551 1.0123,-2.66141 2.8511,-3.05433c0.6039,-0.12775 1.28328,-0.14517 1.92589,-0.07549c0.45486,-0.72971 1.2678,-1.16521 2.19107,-1.16521c1.60265,0 2.48915,1.05682 2.6556,2.10203c0.01742,0.11033 0.02516,0.22259 0.02516,0.33485v2.68851c0,0.00194 0,0.00387 0,0.00387c0,0.00194 0,0.00194 0,0.00387c0,0 0,0 0,0.00194c0,0.17614 -0.02323,0.34453 -0.06194,0.50906c0.37357,0.42389 0.58067,0.94649 0.59035,1.50588c0.01161,0.56132 -0.01548,1.16909 -0.07936,1.80202z" fill="#ffffff" stroke="#ffffff" stroke-width="2.5"/><path d="M256.21802,173.18391c-0.00912,0.03877 -0.01597,0.07755 -0.02737,0.11632c-0.03421,0.14369 -0.10492,0.48353 -0.17562,1.14725c0,0.01141 0,0.02053 -0.00228,0.02737c0.39002,1.56919 -0.26685,2.52485 -0.70249,2.96048c-0.02737,0.02965 -0.05702,0.05702 -0.08895,0.08439c-0.42651,0.38773 -1.17233,0.85074 -2.28536,0.85074c-0.55424,0 -1.07198,-0.12316 -1.52357,-0.34896c0.01141,0.62266 0.01824,1.48024 0.01824,2.67082c0.41055,0.14369 0.78688,0.37634 1.10619,0.68196c0.63406,0.60898 0.98074,1.42322 0.98074,2.29221c0,1.29093 -0.74354,2.41309 -1.94096,2.92627c-0.02965,0.01368 -0.06158,0.02737 -0.09123,0.03877c-0.40142,0.15281 -0.85302,0.22808 -1.38217,0.22808c-0.19159,0 -0.39686,-0.00912 -0.62038,-0.02965c-0.13685,-0.00684 -0.33756,-0.00456 -0.57476,0.00228c-0.43107,0.0479 -1.03777,0.09579 -1.84973,0.14141c-0.01597,0 -0.03193,0.00228 -0.05018,0.00228c-0.1072,0.00456 -0.20983,0.00684 -0.31019,0.00684c-1.45287,0 -2.51344,-0.46072 -3.15435,-1.3662c-0.01368,-0.01825 -0.02509,-0.03649 -0.0365,-0.05474c-0.65231,-0.9739 -0.67055,-2.20554 -0.05018,-3.21137c0.00456,-0.01141 0.0114,-0.02052 0.01824,-0.03193c0.39458,-0.62038 0.97162,-1.06286 1.71973,-1.32287c0.00912,-0.4402 0.00684,-0.99215 -0.00684,-1.64674c-0.37177,0.1551 -0.80056,0.24633 -1.28181,0.24633c-1.27041,0 -2.31958,-0.75494 -2.6845,-1.90219c-0.07527,-0.23264 -0.14597,-0.57248 -0.31019,-1.33883c-0.00684,-0.02737 -0.0114,-0.05474 -0.01596,-0.08211l-0.33756,-1.88622c-0.01141,-0.04106 -0.02737,-0.08895 -0.04562,-0.14369c-0.17562,-0.4995 -0.25773,-0.92373 -0.25773,-1.33427c0,-0.50862 0.14825,-1.27725 0.85074,-2.0436c0.35352,-0.38773 0.99671,-0.88951 2.03219,-1.05145c0.12772,-0.02053 0.25773,-0.03193 0.38774,-0.03193h2.52257c0.05702,0 0.11404,0.00228 0.17106,0.00684c0.9625,0.03421 1.82464,0.03193 2.56362,-0.00228c1.0332,-0.04562 2.06413,-0.13457 3.07452,-0.26457c0.11404,-0.03649 0.2372,-0.07299 0.36949,-0.10492c0.12545,-0.03193 0.25317,-0.05246 0.38089,-0.06614c0.97162,-0.08895 1.8771,0.19158 2.58187,0.79372c0.87355,0.75038 1.259,1.88622 1.02864,3.04031z" fill="#ffffff" stroke="#ffffff" stroke-width="2.5"/><path d="M244.23897,182.29949c-0.02478,0.03154 -0.04956,0.06308 -0.07885,0.09461c-0.48659,0.55642 -1.11735,0.83801 -1.55888,1.00021c-0.83576,0.3289 -1.55212,0.72763 -2.12656,1.18493c-0.02929,0.02478 -0.05857,0.04731 -0.09011,0.06983c-0.55867,0.40324 -1.25701,0.61724 -2.14008,0.64653c-0.02929,0.00225 -0.05857,0.00225 -0.08786,0.00225c-0.68483,0 -1.34262,-0.24329 -1.90129,-0.70285c-0.27258,-0.22302 -0.49785,-0.48659 -0.67131,-0.77719c-0.36269,0.13967 -0.75241,0.21176 -1.15114,0.21176c-0.14868,0 -0.2906,-0.01126 -0.43027,-0.03604c-0.09461,-0.01352 -0.29285,-0.04055 -0.59922,-0.08335c-0.06308,-0.00676 -0.36269,-0.03604 -1.69404,-0.14643c-0.01352,0 -0.02703,-0.00225 -0.04055,-0.00451c-0.95515,-0.09461 -1.58366,-0.27258 -2.10629,-0.59472c-0.02478,-0.01352 -0.04956,-0.02929 -0.07209,-0.04731c-0.80197,-0.53389 -1.28179,-1.42372 -1.28179,-2.37661c0,-1.54086 1.02273,-2.74606 2.54557,-3.00062c0.02027,-0.00225 0.0383,-0.00451 0.05857,-0.00901c0.18247,-0.02478 0.37395,-0.03604 0.56994,-0.0383c0.00451,-0.03379 0.01126,-0.06758 0.01802,-0.10362c0.00901,-0.04956 0.02027,-0.09912 0.03379,-0.14868c0.20049,-0.79746 0.40774,-1.71206 0.62175,-2.7393c-0.81323,-0.13066 -1.36515,-0.59922 -1.56564,-0.77043c-0.34467,-0.29285 -0.60373,-0.67581 -0.7479,-1.10383c-0.34692,-1.04301 -0.07659,-2.17838 0.70735,-2.96457c0.48433,-0.48433 1.08806,-0.80197 1.74135,-0.91685c0.14192,-0.02478 0.36269,-0.06533 0.66455,-0.12615l0.03379,-0.00676c0.66906,-0.1239 1.43723,-0.21401 2.34958,-0.27483c0.65779,-0.04505 0.65779,-0.04505 0.75691,-0.04505c0.10362,0 0.20725,0.00676 0.31087,0.02027c0.96416,0.12165 1.80217,0.6668 2.29552,1.50031c0.22978,0.38521 0.41225,0.85603 0.5812,1.48679c0.10137,0.37395 0.15093,0.5384 0.17121,0.59922c0.04505,0.10588 0.11038,0.2523 0.19373,0.43928c0.03379,0.07434 0.06308,0.15093 0.08786,0.22752c0.00225,0.00451 0.0428,0.12165 0.19824,0.45955c0.01126,0.02703 0.02253,0.05181 0.03379,0.07885c0.30412,0.72537 0.77944,1.86074 1.42597,3.4061c0.01126,0.02929 0.02478,0.05857 0.03604,0.08786c0.06983,0.18698 0.15318,0.40774 0.25005,0.66005c0.80872,-0.06082 1.59492,0.19599 2.2437,0.72763c0.06533,0.05181 0.1284,0.10813 0.18698,0.1667c0.61724,0.61724 0.7479,1.38317 0.7907,1.63547c0.01126,0.07659 0.02027,0.15318 0.02703,0.23203c0.07434,1.00922 -0.27934,1.68728 -0.59021,2.07926zM233.71203,183.92595c-0.28159,-0.08786 -0.54516,-0.22302 -0.77493,-0.39648c0.22978,0.17571 0.49109,0.31313 0.77493,0.39648z" fill="#ffffff" stroke="#ffffff" stroke-width="2.5"/><g fill="#ffffff" stroke="#ffffff" stroke-width="2.5"><path d="M230.93138,185.30843c0.05074,0.19166 -0.03507,0.48242 -0.25831,0.87184c-0.22281,0.38963 -0.45846,0.66733 -0.70696,0.83328c-0.24851,0.16596 -0.634,0.27464 -1.15606,0.3256c-0.42056,0.03833 -0.81238,-0.14701 -1.17523,-0.55559c-0.36328,-0.40858 -0.56997,-0.86204 -0.62093,-1.36013c-0.14048,-1.40478 -0.31885,-2.41383 -0.53534,-3.02692c-0.0257,-0.15311 -0.09562,-0.37962 -0.21039,-0.67996c-0.11456,-0.2999 -0.3757,-0.54601 -0.78341,-0.73767c-0.306,-0.11478 -0.61788,-0.23609 -0.9363,-0.36394c-0.05096,-0.01263 -0.11456,-0.01263 -0.19101,0c-0.17837,0.05096 -0.54819,0.15311 -1.10858,0.30644v0.36393v1.49429c0,0.0257 0.00959,0.14701 0.02875,0.36393c0.01917,0.21736 0.02875,0.37069 0.02875,0.45977c0.02548,0.21736 0.05772,0.79212 0.09583,1.72407c0.08908,0.03855 0.18491,0.03855 0.28728,0c0.34477,-0.14048 0.65121,-0.17227 0.91953,-0.09561c0.19166,0.06403 0.28728,0.21736 0.28728,0.45976c0,0.35784 -0.1884,0.57171 -0.56518,0.64162c-0.37678,0.07035 -0.92911,0.16945 -1.65699,0.29707c-0.58761,0.11478 -1.0219,0.17227 -1.30263,0.17227c-0.43428,0 -0.73463,-0.10215 -0.90037,-0.30644c-0.03833,-0.42165 0.1786,-0.67669 0.65121,-0.76642c0.38332,-0.03833 0.76642,-0.08298 1.14931,-0.13416c0.05096,-0.06359 0.07688,-0.13394 0.07688,-0.21061c-0.01307,-0.29381 -0.0832,-1.3475 -0.21083,-3.16108c-0.03833,-0.43406 -0.05118,-0.76642 -0.03833,-0.9962c-0.22999,-0.01263 -0.38332,-0.0318 -0.45977,-0.0575c-0.19166,-0.06381 -0.31319,-0.18513 -0.36393,-0.36393v-0.05772c0.02526,-0.01263 0.04443,-0.07666 0.0575,-0.19144c0.17859,-0.28095 0.40858,-0.38942 0.68976,-0.32583c0.02526,-0.07666 0.01917,-0.28074 -0.01938,-0.61287c-0.11478,-1.21312 -0.18534,-2.18384 -0.21061,-2.91192c-0.05118,-0.05074 -0.15986,-0.06381 -0.32582,-0.03833c-0.25547,0.05118 -0.38963,0.07666 -0.40227,0.07666c-0.68976,0 -1.0219,-0.16575 -0.9962,-0.4981c0.02548,-0.30644 0.28728,-0.49134 0.78537,-0.55559c0.44691,-0.08908 1.38561,-0.22977 2.81631,-0.42143c-0.06403,0.01285 0.38942,0.0318 1.36013,0.0575c1.12361,0.08951 1.90919,0.27486 2.35632,0.55559c0.48525,0.31951 0.81085,0.74072 0.97681,1.26452c0.05074,0.16618 0.06381,0.41512 0.03833,0.74725c-0.01285,0.33214 -0.06403,0.56823 -0.15311,0.70871c-0.29402,0.53643 -0.88773,1.01536 -1.78178,1.43701c0,0.03833 0.00632,0.06403 0.01917,0.07666c0.31929,0.22999 0.53643,0.43428 0.65142,0.61287c0.3317,0.53643 0.5556,1.3157 0.67038,2.33716c0.16596,1.39237 0.2999,2.26703 0.40227,2.62465c0.01285,0.07666 0.10215,0.19798 0.2681,0.36393c0.16596,0.1664 0.30013,0.2557 0.40249,0.26811c0.39552,0.0257 0.63857,-0.15311 0.72809,-0.53643c-0.01307,-0.14048 0.04443,-0.33192 0.17227,-0.57476c0.17881,-0.16596 0.39574,-0.24916 0.65143,-0.24916c0.25591,0.00044 0.42187,0.11565 0.49875,0.34521zM227.09992,178.58421c0.11478,-0.11478 0.17227,-0.29359 0.17227,-0.53643c0,-0.65121 -0.23,-1.11729 -0.68954,-1.39846c-0.45976,-0.28074 -1.45618,-0.40858 -2.98881,-0.3831c-0.11478,0 -0.28727,0.05096 -0.51726,0.15311c0.03855,0.19166 0.03855,0.35131 0,0.47894c-0.01285,0.19166 -0.01285,0.37047 0,0.53643c0.00632,0.34477 0.01938,0.77295 0.03855,1.28369c0.06359,0.75357 0.09561,1.17523 0.09561,1.2643c0.21692,-0.01263 0.53643,-0.07666 0.95787,-0.19144c0.06359,-0.06381 0.15311,-0.13416 0.2681,-0.21083c0.08908,-0.02548 0.31907,-0.03833 0.68954,-0.03833c0.70261,0.00022 1.36057,-0.31885 1.97366,-0.95787z"/><path d="M228.70267,189.73991c-0.75117,0 -1.85692,-0.23696 -2.85922,-1.36536c-0.01655,-0.01873 -0.03289,-0.03746 -0.04944,-0.05641c-0.30579,0.17445 -0.65012,0.30099 -1.02516,0.37069c-0.37657,0.07013 -0.9302,0.16967 -1.65829,0.29729c-0.74486,0.14484 -1.29806,0.21235 -1.73888,0.21235c-1.48275,0 -2.31996,-0.64903 -2.76143,-1.19352c-0.29925,-0.36894 -0.48198,-0.81891 -0.52488,-1.29196c-0.12262,-1.3512 0.57193,-2.51728 1.74999,-3.06787c-0.01721,-0.25025 -0.03681,-0.53382 -0.05924,-0.85441c-0.37787,-0.35435 -0.65644,-0.80802 -0.80454,-1.32942c-0.06055,-0.213 -0.09125,-0.43341 -0.09125,-0.65491v-0.05772c0,-0.27137 0.04595,-0.536 0.13177,-0.78428c0.06251,-0.24459 0.16335,-0.4785 0.29968,-0.69281c0.07079,-0.11129 0.14658,-0.2167 0.22695,-0.31645c-0.00174,-0.01917 -0.00349,-0.03855 -0.0048,-0.05772c-0.38855,-0.14571 -0.78907,-0.37875 -1.13449,-0.75183c-0.5238,-0.56627 -0.77928,-1.30612 -0.71894,-2.08387c0.14396,-1.73147 1.56116,-2.54559 2.77232,-2.73333c0.52009,-0.09975 1.47056,-0.24175 2.89973,-0.43319c0.22411,-0.02984 0.44539,-0.0281 0.65905,0.00261c0.13525,0.0061 0.43515,0.01742 1.08222,0.03441c0.04247,0.00109 0.08516,0.00349 0.12741,0.00675c1.54918,0.12327 2.6423,0.41382 3.43965,0.91452c0.01481,0.00915 0.0294,0.01851 0.04399,0.0281c0.94001,0.61919 1.6119,1.49778 1.94295,2.54102c0.0024,0.00784 0.0048,0.01546 0.00719,0.02331c0.13939,0.45541 0.18382,0.96069 0.13939,1.58751c-0.03267,0.70761 -0.18752,1.2887 -0.47261,1.77177c-0.16531,0.29272 -0.36438,0.56823 -0.59829,0.82784c0.1995,0.56823 0.34477,1.21312 0.4393,1.9447c0.0893,-0.00675 0.17946,-0.01024 0.2705,-0.01024c1.28064,0 2.36809,0.77753 2.77036,1.98107c0.0159,0.04813 0.03049,0.09627 0.04334,0.14527c0.32887,1.23904 -0.29119,2.32126 -0.49483,2.67692c-0.41272,0.72134 -0.88904,1.25668 -1.45531,1.63477c-0.58696,0.39203 -1.3242,0.62681 -2.25331,0.71785c-0.12393,0.01176 -0.23304,0.01655 -0.34085,0.01655z"/></g><path d="M211.431,187.58895c-0.37749,0.4099 -1.07145,0.89415 -2.24585,0.89415h-0.3222c-0.19828,0.01144 -0.3527,0.01716 -0.48234,0.01716c-0.07817,0 -0.16015,0.00572 -0.24403,0.01335c-0.06482,0.02288 -0.19446,0.06863 -0.42515,0.15824c-0.62724,0.25166 -1.11339,0.36605 -1.57858,0.36605c-0.65202,0 -1.26591,-0.23259 -1.77304,-0.67109c-0.29932,-0.25738 -0.53001,-0.56623 -0.68443,-0.90749c-0.24212,-0.01906 -0.54907,-0.04766 -0.94181,-0.08198h-0.99328c-0.04576,0 -0.08961,-0.00191 -0.13345,-0.00572c-0.49569,-0.0305 -0.97422,-0.17349 -1.41843,-0.42515c-0.82551,-0.46709 -1.31739,-1.27163 -1.31739,-2.15243c0,-0.96087 0.53763,-1.81689 1.4394,-2.29161c0.0286,-0.01716 0.0591,-0.03241 0.08961,-0.04576c0.06482,-0.0305 0.12964,-0.05719 0.19446,-0.08389c0.00191,-0.04766 0.00191,-0.09723 0.00381,-0.1468v-1.36124c0,-0.05719 0.00191,-0.11248 0.00572,-0.16777c-0.10676,-0.44803 -0.09532,-0.90559 0.03432,-1.32883c0,-0.02478 0,-0.05719 -0.00191,-0.09914c-0.00381,-0.04194 -0.00381,-0.08389 -0.00381,-0.12392c0,-0.14489 0.00953,-0.31267 0.03622,-0.5586c0.00572,-0.06291 0.01144,-0.11248 0.01335,-0.15252c-0.00191,-0.04576 -0.01335,-0.25738 -0.07245,-0.93418c-1.11911,-0.43277 -1.66246,-1.39746 -1.78448,-2.25348c-0.0591,-0.4118 0.00572,-0.83505 0.18874,-1.21062c0.51666,-1.06573 1.56714,-1.7025 2.81018,-1.7025c0.07626,0 0.15252,0.00381 0.22687,0.01144c0.08007,0.00763 0.32601,0.0286 0.734,0.06291c0.3508,0.0305 0.54335,0.03622 0.6463,0.03622h0.06863c0.03241,-0.00381 0.05719,-0.00572 0.08961,-0.00763c0.3527,-0.01906 0.58911,-0.03241 0.70731,-0.04004c0.00763,0 0.01716,-0.00191 0.02478,-0.00191c0.04004,-0.04004 0.08198,-0.08007 0.12583,-0.1182c0.61008,-0.53573 1.37268,-0.81598 2.20582,-0.81598c0.28788,0 0.50522,0.00381 0.66727,0.01144c0.12964,0.00572 0.2345,0.01525 0.33173,0.0286c0.02288,0.00191 0.04766,0.00572 0.07245,0.01144h0.77404c0.03622,-0.00381 0.08389,-0.00953 0.14489,-0.01525c0.23831,-0.02478 0.42706,-0.03622 0.59292,-0.03622c1.19156,0 2.15053,0.58529 2.5833,1.57286c0.16587,0.36033 0.25166,0.734 0.25166,1.11149c0,0.88652 -0.49188,1.82833 -1.56142,2.27636c0.03432,0.69587 0.05148,1.37649 0.05148,2.03995v4.38494c0.00381,0.03813 0.01144,0.08389 0.01906,0.13727c0.00191,0.01335 0.00381,0.0286 0.00572,0.04194c0.01906,0.13727 0.03432,0.27454 0.04576,0.4118c0.86746,0.37558 1.45466,1.16678 1.53282,2.17722c0.04194,0.50141 -0.05719,1.24113 -0.734,1.97513z" fill="#ffffff" stroke="#ffffff" stroke-width="2.5"/><path d="M219.56058,185.26775c-0.11808,1.27356 -0.50099,2.24011 -1.16729,2.94352c-0.38797,0.4099 -0.96318,0.73377 -1.9213,1.07788c-0.01856,0.00675 -0.0388,0.01349 -0.05904,0.02024c-0.45882,0.14675 -0.95981,0.22266 -1.48778,0.22266c-0.80462,0 -1.55188,-0.15856 -2.22155,-0.47063c-0.99017,-0.46219 -1.48272,-1.10825 -1.72731,-1.65309c-0.03542,-0.05904 -0.07253,-0.11976 -0.10796,-0.18555c-0.10121,-0.18386 -0.17206,-0.38291 -0.20579,-0.59039c-0.04892,-0.29013 -0.12651,-0.72702 -0.23278,-1.30729c-0.02024,-0.11133 -0.03036,-0.22266 -0.03036,-0.33568v-1.46754c0,-0.18218 0.01518,-0.4487 0.12483,-1.17066c0.10627,-0.70678 0.15181,-0.92607 0.23616,-1.14198c0.22097,-0.5887 0.88221,-2.31939 2.4847,-2.66182c0.52629,-0.11133 1.11837,-0.12651 1.67839,-0.06579c0.3964,-0.63593 1.10487,-1.01547 1.90949,-1.01547c1.39669,0 2.16926,0.92101 2.31433,1.8319c0.01518,0.09615 0.02193,0.19399 0.02193,0.29182v2.343c0,0.00169 0,0.00337 0,0.00337c0,0.00169 0,0.00169 0,0.00337c0,0 0,0 0,0.00169c0,0.1535 -0.02024,0.30026 -0.05398,0.44364c0.32556,0.36942 0.50605,0.82486 0.51448,1.31235c0.01012,0.48918 -0.01349,1.01884 -0.06916,1.57044z" fill="#ffffff" stroke="#ffffff" stroke-width="2.5"/><path d="M211.33145,187.5855c-0.37749,0.4099 -1.07145,0.89415 -2.24585,0.89415h-0.3222c-0.19828,0.01144 -0.3527,0.01716 -0.48234,0.01716c-0.07817,0 -0.16015,0.00572 -0.24403,0.01335c-0.06482,0.02288 -0.19446,0.06863 -0.42515,0.15824c-0.62724,0.25166 -1.11339,0.36605 -1.57858,0.36605c-0.65202,0 -1.26591,-0.23259 -1.77304,-0.67109c-0.29932,-0.25738 -0.53001,-0.56623 -0.68443,-0.90749c-0.24212,-0.01906 -0.54907,-0.04766 -0.94181,-0.08198h-0.99328c-0.04576,0 -0.08961,-0.00191 -0.13345,-0.00572c-0.49569,-0.0305 -0.97422,-0.17349 -1.41843,-0.42515c-0.82551,-0.46709 -1.31739,-1.27163 -1.31739,-2.15243c0,-0.96087 0.53763,-1.81689 1.4394,-2.29161c0.0286,-0.01716 0.0591,-0.03241 0.08961,-0.04576c0.06482,-0.0305 0.12964,-0.05719 0.19446,-0.08389c0.00191,-0.04766 0.00191,-0.09723 0.00381,-0.1468v-1.36124c0,-0.05719 0.00191,-0.11248 0.00572,-0.16777c-0.10676,-0.44803 -0.09532,-0.90559 0.03432,-1.32883c0,-0.02478 0,-0.05719 -0.00191,-0.09914c-0.00381,-0.04194 -0.00381,-0.08389 -0.00381,-0.12392c0,-0.14489 0.00953,-0.31267 0.03622,-0.5586c0.00572,-0.06291 0.01144,-0.11248 0.01335,-0.15252c-0.00191,-0.04576 -0.01335,-0.25738 -0.07245,-0.93418c-1.11911,-0.43277 -1.66246,-1.39746 -1.78448,-2.25348c-0.0591,-0.4118 0.00572,-0.83505 0.18874,-1.21062c0.51666,-1.06573 1.56714,-1.7025 2.81018,-1.7025c0.07626,0 0.15252,0.00381 0.22687,0.01144c0.08007,0.00763 0.32601,0.0286 0.734,0.06291c0.3508,0.0305 0.54335,0.03622 0.6463,0.03622h0.06863c0.03241,-0.00381 0.05719,-0.00572 0.08961,-0.00763c0.3527,-0.01906 0.58911,-0.03241 0.70731,-0.04004c0.00763,0 0.01716,-0.00191 0.02478,-0.00191c0.04004,-0.04004 0.08198,-0.08007 0.12583,-0.1182c0.61008,-0.53573 1.37268,-0.81598 2.20582,-0.81598c0.28788,0 0.50522,0.00381 0.66727,0.01144c0.12964,0.00572 0.2345,0.01525 0.33173,0.0286c0.02288,0.00191 0.04766,0.00572 0.07245,0.01144h0.77404c0.03622,-0.00381 0.08389,-0.00953 0.14489,-0.01525c0.23831,-0.02478 0.42706,-0.03622 0.59292,-0.03622c1.19156,0 2.15053,0.58529 2.5833,1.57286c0.16587,0.36033 0.25166,0.734 0.25166,1.11149c0,0.88652 -0.49188,1.82833 -1.56142,2.27636c0.03432,0.69587 0.05148,1.37649 0.05148,2.03995v4.38494c0.00381,0.03813 0.01144,0.08389 0.01906,0.13727c0.00191,0.01335 0.00381,0.0286 0.00572,0.04194c0.01906,0.13727 0.03432,0.27454 0.04576,0.4118c0.86746,0.37558 1.45466,1.16678 1.53282,2.17722c0.04194,0.50141 -0.05719,1.24113 -0.734,1.97513z" fill="#ffa000" stroke="none" stroke-width="1"/><path d="M209.97479,185.77928c0.01106,0.11153 -0.05052,0.24022 -0.18455,0.38549c-0.13422,0.14527 -0.3691,0.2181 -0.70426,0.2181c-0.07836,0 -0.20705,0 -0.38568,0c-0.17883,0.01106 -0.31858,0.01678 -0.41924,0.01678c-0.21238,0 -0.43049,0.01678 -0.65393,0.05052c-0.12316,0.02212 -0.38568,0.11153 -0.78834,0.26824c-0.35785,0.14508 -0.62609,0.2181 -0.80492,0.2181c-0.14547,0 -0.27968,-0.05319 -0.40246,-0.15938c-0.12316,-0.10638 -0.18436,-0.23221 -0.18436,-0.3773c0,-0.23469 0.27377,-0.41905 0.8217,-0.55327c0.79367,-0.20133 1.20166,-0.30752 1.22416,-0.31858c-0.0225,-0.71532 -0.05033,-1.53702 -0.0837,-2.46529c-0.03355,-0.87203 -0.05052,-1.28555 -0.05052,-1.24094v-0.93914c0,-0.01125 0,-0.09494 0,-0.25166c0.01125,-0.12297 0.01125,-0.212 0,-0.26824c-0.01125,-0.10047 -0.05033,-0.16186 -0.11725,-0.18436c-0.01125,-0.01125 -0.17883,-0.01697 -0.50312,-0.01697c-0.55918,0.01144 -1.20738,0.0898 -1.9452,0.23469c-0.27968,0.0673 -0.69892,0.16243 -1.25791,0.28521v2.39799c0.01106,0.0448 0.01678,0.26291 0.01678,0.65412c0,0.31324 0.03374,0.50312 0.10066,0.57004c0.05586,0.0225 0.35213,0.0448 0.88881,0.0673c0.36891,0.01125 0.59788,0.14547 0.68748,0.40227c0.02212,0.0673 -0.00305,0.16777 -0.0755,0.30199c-0.07283,0.13403 -0.14813,0.2181 -0.22649,0.25147c-0.17883,0.06711 -0.3018,0.10047 -0.36891,0.10047c-0.24613,-0.01125 -0.85525,-0.06158 -1.82795,-0.1508h-1.09013c-0.17883,-0.01144 -0.35213,-0.06463 -0.5199,-0.15938c-0.16777,-0.09494 -0.25147,-0.2038 -0.25147,-0.32715c0,-0.17864 0.10619,-0.32391 0.31858,-0.43582c0.16777,-0.07817 0.35232,-0.11744 0.55346,-0.11744c0.07798,0 0.2181,0.00305 0.41905,0.00839c0.20133,0.00572 0.34641,0.00305 0.43602,-0.00839c-0.0225,-0.43411 -0.0225,-1.09681 0,-1.98809c0,0.01144 0,-0.45089 0,-1.38621c0,-0.03336 0.01392,-0.10295 0.04213,-0.20895c0.02783,-0.10581 0.04194,-0.18665 0.04194,-0.24212c-0.0448,-0.04461 -0.0898,-0.11134 -0.13422,-0.20056c-0.0225,-0.08903 -0.0225,-0.16682 0,-0.23412c0.07817,-0.17826 0.10619,-0.45642 0.0837,-0.83524c0,-0.06673 0.00858,-0.18074 0.02536,-0.34222c0.01678,-0.16148 0.02517,-0.2814 0.02517,-0.35937c0,-0.1447 -0.02803,-0.52886 -0.08389,-1.15267v-1.38659c0,-0.06654 -0.02192,-0.17235 -0.06577,-0.31724c-0.30733,0.03355 -0.53248,0.05033 -0.6749,0.05033c-0.63677,0 -0.98795,-0.22897 -1.05353,-0.68748c0.16758,-0.34622 0.47491,-0.5199 0.92236,-0.5199c-0.01144,0 0.25147,0.0225 0.78815,0.06711c0.50312,0.0448 0.86631,0.05605 1.09013,0.03355c0.6259,-0.03355 0.90559,-0.05033 0.83829,-0.05033c0.61484,0 0.88881,0.18455 0.82189,0.55346c-0.05605,0.26824 -0.31324,0.40818 -0.77156,0.41905c-0.3466,0.01144 -0.68729,0.0225 -1.02284,0.03355c0.05872,0.39159 0.0978,0.82761 0.11744,1.30805c0,0.3018 0,0.73248 0,1.29127c0,0.6036 0,1.03961 0,1.30786c0.01106,0.01144 0.02783,0.0225 0.05033,0.03355c0.17883,0.01144 0.35766,0.01678 0.53649,0.01678c0.41352,0 0.94467,-0.03355 1.59307,-0.10047c0.87203,-0.10047 1.40261,-0.15633 1.59288,-0.16777c0.05586,-0.35766 0.08389,-0.78243 0.08389,-1.27449c0,-0.92789 -0.07836,-1.9675 -0.23469,-3.11922c0.01106,0 -0.21238,0 -0.6709,0c-0.23469,0 -0.44726,-0.0429 -0.63734,-0.12907c-0.19008,-0.08617 -0.28502,-0.26157 -0.28502,-0.52619c0,-0.11496 0.03908,-0.20685 0.11744,-0.27568c0.22344,-0.19542 0.49721,-0.29322 0.8217,-0.29322c0.60379,0 0.84953,0.01678 0.73781,0.05033h1.15705c0.04442,0 0.14794,-0.00839 0.31019,-0.02517c0.16205,-0.01678 0.28788,-0.02517 0.3773,-0.02517c0.35766,0 0.58129,0.11229 0.6709,0.33592c0.04442,0.0898 0.06711,0.17387 0.06711,0.25185c0,0.24632 -0.22916,0.39198 -0.68748,0.43678c-0.33535,0.01144 -0.6709,0.0225 -1.00606,0.03355c0.12297,1.33207 0.18455,2.614 0.18455,3.84559v4.45033c0,0.0673 0.0143,0.19618 0.04328,0.38626c0.03813,0.29112 0.05739,0.57652 0.05739,0.8564c-0.01125,0.50389 -0.01125,0.89586 0,1.17574c0.02231,0.03355 0.04442,0.0612 0.06711,0.0837c0.54774,-0.07836 0.81598,-0.11725 0.80511,-0.11725c0.40246,0.00038 0.61465,0.16224 0.63715,0.48673z" fill="#ffffff" stroke="none" stroke-width="1"/><path d="M219.46103,185.2643c-0.11808,1.27356 -0.50099,2.24011 -1.16729,2.94352c-0.38797,0.4099 -0.96318,0.73377 -1.9213,1.07788c-0.01856,0.00675 -0.0388,0.01349 -0.05904,0.02024c-0.45882,0.14675 -0.95981,0.22266 -1.48778,0.22266c-0.80462,0 -1.55188,-0.15856 -2.22155,-0.47063c-0.99017,-0.46219 -1.48272,-1.10825 -1.72731,-1.65309c-0.03542,-0.05904 -0.07253,-0.11976 -0.10796,-0.18555c-0.10121,-0.18386 -0.17206,-0.38291 -0.20579,-0.59039c-0.04892,-0.29013 -0.12651,-0.72702 -0.23278,-1.30729c-0.02024,-0.11133 -0.03036,-0.22266 -0.03036,-0.33568v-1.46754c0,-0.18218 0.01518,-0.4487 0.12483,-1.17066c0.10627,-0.70678 0.15181,-0.92607 0.23616,-1.14198c0.22097,-0.5887 0.88221,-2.31939 2.4847,-2.66182c0.52629,-0.11133 1.11837,-0.12651 1.67839,-0.06579c0.3964,-0.63593 1.10487,-1.01547 1.90949,-1.01547c1.39669,0 2.16926,0.92101 2.31433,1.8319c0.01518,0.09615 0.02193,0.19399 0.02193,0.29182v2.343c0,0.00169 0,0.00337 0,0.00337c0,0.00169 0,0.00169 0,0.00337c0,0 0,0 0,0.00169c0,0.1535 -0.02024,0.30026 -0.05398,0.44364c0.32556,0.36942 0.50605,0.82486 0.51448,1.31235c0.01012,0.48918 -0.01349,1.01884 -0.06916,1.57044z" fill="#ffa000" stroke="none" stroke-width="1"/><path d="M217.67451,183.72557c0.00961,0.41547 -0.00995,0.86568 -0.05938,1.35014c-0.07945,0.85084 -0.30177,1.46889 -0.66782,1.85467c-0.16835,0.17813 -0.5688,0.38089 -1.2017,0.60827c-0.27715,0.08906 -0.58381,0.1336 -0.92,0.1336c-0.53405,0 -1.01395,-0.09885 -1.4392,-0.29688c-0.46506,-0.21743 -0.75182,-0.4993 -0.86062,-0.84578c-0.03947,-0.04942 -0.08417,-0.11858 -0.13343,-0.20765c-0.04976,-0.29671 -0.12871,-0.7417 -0.23751,-1.33529v-1.46889c0,-0.13849 0.03458,-0.4352 0.10391,-0.89031c0.06899,-0.45477 0.11369,-0.70695 0.1336,-0.75654c0.34614,-0.92 0.72702,-1.42436 1.14232,-1.51359c0.18774,-0.0393 0.39556,-0.05938 0.62311,-0.05938c0.73191,0 1.39484,0.17813 1.98826,0.53422c0.0393,0.0199 0.0889,0.02969 0.14827,0.02969c0.00995,-0.02969 0.01974,-0.15316 0.02986,-0.37093c0.00978,0 0.00978,-0.1729 0,-0.51921c-0.01012,-0.23751 0.01333,-0.40551 0.07017,-0.50453c0.05651,-0.09868 0.17003,-0.14844 0.33973,-0.14844c0.29182,0 0.45207,0.08906 0.48041,0.26719c0,0.00995 0,0.37599 0,1.09796c0,0.54417 0,0.88542 0,1.02374c0,0.16835 0,0.24257 0,0.22249c-0.03981,0.14844 -0.10897,0.23734 -0.20782,0.26702c-0.26686,0.08906 -0.45005,0.09429 -0.54889,0.01484c-0.04959,0 -0.10374,-0.01484 -0.16328,-0.04453c-0.04959,-0.13832 -0.15822,-0.32117 -0.3264,-0.54889c-0.22772,-0.18774 -0.52443,-0.35103 -0.89014,-0.48969c-0.36621,-0.13832 -0.67777,-0.20765 -0.93484,-0.20765c-0.32657,0 -0.58853,0.25218 -0.7864,0.75671c-0.27715,0.69244 -0.40062,1.58747 -0.37093,2.6856c0.01974,0.48479 0.03458,0.79146 0.0447,0.91983c0.04926,0.40568 0.15822,0.75182 0.3264,1.03858c0.11875,0.19803 0.3016,0.36132 0.54906,0.48969c0.24712,0.12871 0.48952,0.19786 0.72702,0.20765c1.17724,0.04959 1.86445,-0.46978 2.06265,-1.55795c0.1088,-0.58347 0.11858,-1.07316 0.02969,-1.46889c-0.02007,-0.07911 -0.01029,-0.18555 0.02969,-0.31915c0.03913,-0.13343 0.21254,-0.21507 0.51921,-0.24476c0.06916,0 0.15316,0.03222 0.25235,0.09649c0.09817,0.06477 0.14793,0.1314 0.14793,0.20056z" fill="#ffffff" stroke="none" stroke-width="1"/><g stroke="none" stroke-width="1"><path d="M231.02401,185.30498c0.05074,0.19166 -0.03507,0.48242 -0.25831,0.87184c-0.22281,0.38963 -0.45846,0.66733 -0.70696,0.83328c-0.24851,0.16596 -0.634,0.27464 -1.15606,0.3256c-0.42056,0.03833 -0.81238,-0.14701 -1.17523,-0.55559c-0.36328,-0.40858 -0.56997,-0.86204 -0.62093,-1.36013c-0.14048,-1.40478 -0.31885,-2.41383 -0.53534,-3.02692c-0.0257,-0.15311 -0.09562,-0.37962 -0.21039,-0.67996c-0.11456,-0.2999 -0.3757,-0.54601 -0.78341,-0.73767c-0.306,-0.11478 -0.61788,-0.23609 -0.9363,-0.36394c-0.05096,-0.01263 -0.11456,-0.01263 -0.19101,0c-0.17837,0.05096 -0.54819,0.15311 -1.10858,0.30644v0.36393v1.49429c0,0.0257 0.00959,0.14701 0.02875,0.36393c0.01917,0.21736 0.02875,0.37069 0.02875,0.45977c0.02548,0.21736 0.05772,0.79212 0.09583,1.72407c0.08908,0.03855 0.18491,0.03855 0.28728,0c0.34477,-0.14048 0.65121,-0.17227 0.91953,-0.09561c0.19166,0.06403 0.28728,0.21736 0.28728,0.45976c0,0.35784 -0.1884,0.57171 -0.56518,0.64162c-0.37678,0.07035 -0.92911,0.16945 -1.65699,0.29707c-0.58761,0.11478 -1.0219,0.17227 -1.30263,0.17227c-0.43428,0 -0.73463,-0.10215 -0.90037,-0.30644c-0.03833,-0.42165 0.1786,-0.67669 0.65121,-0.76642c0.38332,-0.03833 0.76642,-0.08298 1.14931,-0.13416c0.05096,-0.06359 0.07688,-0.13394 0.07688,-0.21061c-0.01307,-0.29381 -0.0832,-1.3475 -0.21083,-3.16108c-0.03833,-0.43406 -0.05118,-0.76642 -0.03833,-0.9962c-0.22999,-0.01263 -0.38332,-0.0318 -0.45977,-0.0575c-0.19166,-0.06381 -0.31319,-0.18513 -0.36393,-0.36393v-0.05772c0.02526,-0.01263 0.04443,-0.07666 0.0575,-0.19144c0.17859,-0.28095 0.40858,-0.38942 0.68976,-0.32583c0.02526,-0.07666 0.01917,-0.28074 -0.01938,-0.61287c-0.11478,-1.21312 -0.18534,-2.18384 -0.21061,-2.91192c-0.05118,-0.05074 -0.15986,-0.06381 -0.32582,-0.03833c-0.25547,0.05118 -0.38963,0.07666 -0.40227,0.07666c-0.68976,0 -1.0219,-0.16575 -0.9962,-0.4981c0.02548,-0.30644 0.28728,-0.49134 0.78537,-0.55559c0.44691,-0.08908 1.38561,-0.22977 2.81631,-0.42143c-0.06403,0.01285 0.38942,0.0318 1.36013,0.0575c1.12361,0.08951 1.90919,0.27486 2.35632,0.55559c0.48525,0.31951 0.81085,0.74072 0.97681,1.26452c0.05074,0.16618 0.06381,0.41512 0.03833,0.74725c-0.01285,0.33214 -0.06403,0.56823 -0.15311,0.70871c-0.29402,0.53643 -0.88773,1.01536 -1.78178,1.43701c0,0.03833 0.00632,0.06403 0.01917,0.07666c0.31929,0.22999 0.53643,0.43428 0.65142,0.61287c0.3317,0.53643 0.5556,1.3157 0.67038,2.33716c0.16596,1.39237 0.2999,2.26703 0.40227,2.62465c0.01285,0.07666 0.10215,0.19798 0.2681,0.36393c0.16596,0.1664 0.30013,0.2557 0.40249,0.26811c0.39552,0.0257 0.63857,-0.15311 0.72809,-0.53643c-0.01307,-0.14048 0.04443,-0.33192 0.17227,-0.57476c0.17881,-0.16596 0.39574,-0.24916 0.65143,-0.24916c0.25591,0.00044 0.42187,0.11565 0.49875,0.34521zM227.19255,178.58076c0.11478,-0.11478 0.17227,-0.29359 0.17227,-0.53643c0,-0.65121 -0.23,-1.11729 -0.68954,-1.39846c-0.45976,-0.28074 -1.45618,-0.40858 -2.98881,-0.3831c-0.11478,0 -0.28727,0.05096 -0.51726,0.15311c0.03855,0.19166 0.03855,0.35131 0,0.47894c-0.01285,0.19166 -0.01285,0.37047 0,0.53643c0.00632,0.34477 0.01938,0.77295 0.03855,1.28369c0.06359,0.75357 0.09561,1.17523 0.09561,1.2643c0.21692,-0.01263 0.53643,-0.07666 0.95787,-0.19144c0.06359,-0.06381 0.15311,-0.13416 0.2681,-0.21083c0.08908,-0.02548 0.31907,-0.03833 0.68954,-0.03833c0.70261,0.00022 1.36057,-0.31885 1.97366,-0.95787z" fill="#faa83b"/><path d="M228.7953,189.73646c-0.75117,0 -1.85692,-0.23696 -2.85922,-1.36536c-0.01655,-0.01873 -0.03289,-0.03746 -0.04944,-0.05641c-0.30579,0.17445 -0.65012,0.30099 -1.02516,0.37069c-0.37657,0.07013 -0.9302,0.16967 -1.65829,0.29729c-0.74486,0.14484 -1.29806,0.21235 -1.73888,0.21235c-1.48275,0 -2.31996,-0.64903 -2.76143,-1.19352c-0.29925,-0.36894 -0.48198,-0.81891 -0.52488,-1.29196c-0.12262,-1.3512 0.57193,-2.51728 1.74999,-3.06787c-0.01721,-0.25025 -0.03681,-0.53382 -0.05924,-0.85441c-0.37787,-0.35435 -0.65644,-0.80802 -0.80454,-1.32942c-0.06055,-0.213 -0.09125,-0.43341 -0.09125,-0.65491v-0.05772c0,-0.27137 0.04595,-0.536 0.13177,-0.78428c0.06251,-0.24459 0.16335,-0.4785 0.29968,-0.69281c0.07079,-0.11129 0.14658,-0.2167 0.22695,-0.31645c-0.00174,-0.01917 -0.00349,-0.03855 -0.0048,-0.05772c-0.38855,-0.14571 -0.78907,-0.37875 -1.13449,-0.75183c-0.5238,-0.56627 -0.77928,-1.30612 -0.71894,-2.08387c0.14396,-1.73147 1.56116,-2.54559 2.77232,-2.73333c0.52009,-0.09975 1.47056,-0.24175 2.89973,-0.43319c0.22411,-0.02984 0.44539,-0.0281 0.65905,0.00261c0.13525,0.0061 0.43515,0.01742 1.08222,0.03441c0.04247,0.00109 0.08516,0.00349 0.12741,0.00675c1.54918,0.12327 2.6423,0.41382 3.43965,0.91452c0.01481,0.00915 0.0294,0.01851 0.04399,0.0281c0.94001,0.61919 1.6119,1.49778 1.94295,2.54102c0.0024,0.00784 0.0048,0.01546 0.00719,0.02331c0.13939,0.45541 0.18382,0.96069 0.13939,1.58751c-0.03267,0.70761 -0.18752,1.2887 -0.47261,1.77177c-0.16531,0.29272 -0.36438,0.56823 -0.59829,0.82784c0.1995,0.56823 0.34477,1.21312 0.4393,1.9447c0.0893,-0.00675 0.17946,-0.01024 0.2705,-0.01024c1.28064,0 2.36809,0.77753 2.77036,1.98107c0.0159,0.04813 0.03049,0.09627 0.04334,0.14527c0.32887,1.23904 -0.29119,2.32126 -0.49483,2.67692c-0.41272,0.72134 -0.88904,1.25668 -1.45531,1.63477c-0.58696,0.39203 -1.3242,0.62681 -2.25331,0.71785c-0.12393,0.01176 -0.23304,0.01655 -0.34085,0.01655z" fill="#ffa000"/></g><path d="M231.01575,185.28981c0.05092,0.19232 -0.03518,0.48407 -0.25919,0.87482c-0.22357,0.39097 -0.46003,0.66961 -0.70939,0.83614c-0.24935,0.16653 -0.63617,0.27558 -1.16001,0.32672c-0.422,0.03847 -0.81516,-0.14751 -1.17925,-0.5575c-0.36453,-0.40999 -0.57192,-0.86498 -0.62306,-1.36478c-0.14096,-1.40959 -0.31994,-2.42209 -0.53717,-3.03728c-0.02579,-0.15363 -0.09594,-0.38092 -0.21111,-0.68229c-0.11495,-0.30093 -0.37698,-0.54788 -0.78609,-0.7402c-0.30705,-0.11517 -0.62001,-0.2369 -0.93951,-0.36518c-0.05114,-0.01267 -0.11495,-0.01267 -0.19166,0c-0.17899,0.05114 -0.55007,0.15364 -1.11237,0.30749v0.36518v1.49941c0,0.02579 0.00962,0.14751 0.02885,0.36518c0.01923,0.2181 0.02885,0.37196 0.02885,0.46134c0.02557,0.2181 0.05791,0.79484 0.09616,1.72997c0.08938,0.03868 0.18554,0.03868 0.28826,0c0.34595,-0.14096 0.65344,-0.17287 0.92268,-0.09594c0.19232,0.06425 0.28826,0.21811 0.28826,0.46134c0,0.35906 -0.18904,0.57367 -0.56712,0.64382c-0.37808,0.07059 -0.93229,0.17002 -1.66266,0.29809c-0.58962,0.11517 -1.02539,0.17287 -1.30709,0.17287c-0.43577,0 -0.73714,-0.1025 -0.90345,-0.30749c-0.03847,-0.4231 0.1792,-0.67901 0.65344,-0.76905c0.38463,-0.03847 0.76904,-0.08326 1.15324,-0.13462c0.05114,-0.06381 0.07714,-0.1344 0.07714,-0.21133c-0.01311,-0.29481 -0.08348,-1.35211 -0.21155,-3.1719c-0.03847,-0.43555 -0.05136,-0.76904 -0.03847,-0.99961c-0.23078,-0.01267 -0.38463,-0.03191 -0.46134,-0.0577c-0.19232,-0.06403 -0.31426,-0.18576 -0.36518,-0.36518v-0.05791c0.02535,-0.01267 0.04458,-0.07693 0.0577,-0.1921c0.1792,-0.28192 0.40998,-0.39075 0.69212,-0.32694c0.02535,-0.07693 0.01924,-0.2817 -0.01945,-0.61497c-0.11517,-1.21728 -0.18598,-2.19131 -0.21133,-2.92189c-0.05136,-0.05092 -0.16041,-0.06403 -0.32694,-0.03847c-0.25635,0.05136 -0.39097,0.07693 -0.40364,0.07693c-0.69212,0 -1.02539,-0.16631 -0.99961,-0.4998c0.02557,-0.30749 0.28825,-0.49303 0.78806,-0.5575c0.44844,-0.08938 1.39036,-0.23056 2.82596,-0.42288c-0.06425,0.01289 0.39075,0.03191 1.36479,0.0577c1.12745,0.08982 1.91573,0.2758 2.3644,0.5575c0.48691,0.3206 0.81363,0.74326 0.98016,1.26885c0.05092,0.16675 0.06403,0.41654 0.03846,0.74981c-0.01289,0.33327 -0.06425,0.57018 -0.15363,0.71114c-0.29503,0.53827 -0.89078,1.01884 -1.78789,1.44193c0,0.03847 0.00634,0.06425 0.01923,0.07693c0.32038,0.23078 0.53827,0.43577 0.65366,0.61497c0.33284,0.53827 0.5575,1.32021 0.67267,2.34517c0.16653,1.39713 0.30093,2.27479 0.40364,2.63364c0.01289,0.07693 0.10249,0.19865 0.26902,0.36518c0.16653,0.16697 0.30115,0.25657 0.40387,0.26902c0.39687,0.02579 0.64077,-0.15364 0.73058,-0.53827c-0.01311,-0.14096 0.04458,-0.33305 0.17286,-0.57673c0.17942,-0.16653 0.39709,-0.25001 0.65366,-0.25001c0.25679,0.00044 0.42332,0.11605 0.50046,0.34639zM227.17118,178.54257c0.11517,-0.11517 0.17287,-0.29459 0.17287,-0.53826c0,-0.65344 -0.23078,-1.12112 -0.6919,-1.40325c-0.46134,-0.2817 -1.46116,-0.40998 -2.99904,-0.38441c-0.11517,0 -0.28826,0.05113 -0.51904,0.15363c0.03868,0.19232 0.03868,0.35251 0,0.48057c-0.01289,0.19232 -0.01289,0.37174 0,0.53827c0.00634,0.34595 0.01945,0.7756 0.03868,1.28808c0.06381,0.75615 0.09594,1.17925 0.09594,1.26863c0.21767,-0.01267 0.53827,-0.07693 0.96115,-0.1921c0.06381,-0.06403 0.15363,-0.13463 0.26902,-0.21155c0.08938,-0.02557 0.32016,-0.03846 0.6919,-0.03846c0.70501,0.00022 1.36523,-0.31995 1.98042,-0.96115z" fill="#ffffff" stroke="none" stroke-width="1"/><path d="M244.3316,182.19995c-0.02478,0.03154 -0.04956,0.06308 -0.07885,0.09461c-0.48659,0.55642 -1.11735,0.83801 -1.55888,1.00021c-0.83576,0.3289 -1.55212,0.72763 -2.12656,1.18493c-0.02929,0.02478 -0.05857,0.04731 -0.09011,0.06983c-0.55867,0.40324 -1.25701,0.61724 -2.14008,0.64653c-0.02929,0.00225 -0.05857,0.00225 -0.08786,0.00225c-0.68483,0 -1.34262,-0.24329 -1.90129,-0.70285c-0.27258,-0.22302 -0.49785,-0.48659 -0.67131,-0.77719c-0.36269,0.13967 -0.75241,0.21176 -1.15114,0.21176c-0.14868,0 -0.2906,-0.01126 -0.43027,-0.03604c-0.09461,-0.01352 -0.29285,-0.04055 -0.59922,-0.08335c-0.06308,-0.00676 -0.36269,-0.03604 -1.69404,-0.14643c-0.01352,0 -0.02703,-0.00225 -0.04055,-0.00451c-0.95515,-0.09461 -1.58366,-0.27258 -2.10629,-0.59472c-0.02478,-0.01352 -0.04956,-0.02929 -0.07209,-0.04731c-0.80197,-0.53389 -1.28179,-1.42372 -1.28179,-2.37661c0,-1.54086 1.02273,-2.74606 2.54557,-3.00062c0.02027,-0.00225 0.0383,-0.00451 0.05857,-0.00901c0.18247,-0.02478 0.37395,-0.03604 0.56994,-0.0383c0.00451,-0.03379 0.01126,-0.06758 0.01802,-0.10362c0.00901,-0.04956 0.02027,-0.09912 0.03379,-0.14868c0.20049,-0.79746 0.40774,-1.71206 0.62175,-2.7393c-0.81323,-0.13066 -1.36515,-0.59922 -1.56564,-0.77043c-0.34467,-0.29285 -0.60373,-0.67581 -0.7479,-1.10383c-0.34692,-1.04301 -0.07659,-2.17838 0.70735,-2.96457c0.48433,-0.48433 1.08806,-0.80197 1.74135,-0.91685c0.14192,-0.02478 0.36269,-0.06533 0.66455,-0.12615l0.03379,-0.00676c0.66906,-0.1239 1.43723,-0.21401 2.34958,-0.27483c0.65779,-0.04505 0.65779,-0.04505 0.75691,-0.04505c0.10362,0 0.20725,0.00676 0.31087,0.02027c0.96416,0.12165 1.80217,0.6668 2.29552,1.50031c0.22978,0.38521 0.41225,0.85603 0.5812,1.48679c0.10137,0.37395 0.15093,0.5384 0.17121,0.59922c0.04505,0.10588 0.11038,0.2523 0.19373,0.43928c0.03379,0.07434 0.06308,0.15093 0.08786,0.22752c0.00225,0.00451 0.0428,0.12165 0.19824,0.45955c0.01126,0.02703 0.02253,0.05181 0.03379,0.07885c0.30412,0.72537 0.77944,1.86074 1.42597,3.4061c0.01126,0.02929 0.02478,0.05857 0.03604,0.08786c0.06983,0.18698 0.15318,0.40774 0.25005,0.66005c0.80872,-0.06082 1.59492,0.19599 2.2437,0.72763c0.06533,0.05181 0.1284,0.10813 0.18698,0.1667c0.61724,0.61724 0.7479,1.38317 0.7907,1.63547c0.01126,0.07659 0.02027,0.15318 0.02703,0.23203c0.07434,1.00922 -0.27934,1.68728 -0.59021,2.07926zM233.80466,183.82641c-0.28159,-0.08786 -0.54516,-0.22302 -0.77493,-0.39648c0.22978,0.17571 0.49109,0.31313 0.77493,0.39648z" fill="#ffa000" stroke="none" stroke-width="1"/><path d="M242.39111,180.66c-0.09281,0.10588 -0.28429,0.2113 -0.57467,0.31696c-1.08378,0.42283 -2.0146,0.94456 -2.79382,1.56541c-0.14553,0.10565 -0.40346,0.1649 -0.77313,0.17819c-0.10588,0 -0.21491,-0.04641 -0.32687,-0.13854c-0.11241,-0.09236 -0.1685,-0.19824 -0.1685,-0.31696c0,-0.15859 0.17842,-0.36314 0.53502,-0.61454c0.25073,-0.15837 0.50213,-0.32372 0.75331,-0.49537c0.01284,-0.06578 -0.205,-0.84522 -0.65464,-2.33809c-0.72718,-0.01307 -1.87088,0.22437 -3.43066,0.71298c-0.09281,0.02658 -0.14575,0.0793 -0.15882,0.15859c-0.01329,0.0793 -0.03311,0.21108 -0.05947,0.39603c-0.02546,0.03965 -0.05069,0.09889 -0.07592,0.17819c0,0.05294 0.07592,0.10926 0.22797,0.16873c0.15161,0.0597 0.2478,0.11601 0.28722,0.1685c0.03965,0.05294 0.05947,0.11872 0.05947,0.19824c0,0.15837 -0.06938,0.30727 -0.20815,0.44604c-0.13854,0.13854 -0.30705,0.20793 -0.50506,0.20793c0.01307,0 -0.22482,-0.03289 -0.71343,-0.09889c-0.09259,-0.01307 -0.69361,-0.066 -1.8033,-0.15837c-0.52849,-0.05271 -0.87856,-0.13201 -1.04999,-0.23789c-0.11894,-0.0793 -0.17842,-0.18495 -0.17842,-0.31696c0,-0.31718 0.15859,-0.50213 0.47555,-0.55484c0.18472,-0.02636 0.42261,-0.01329 0.71321,0.03965c0.066,0.02658 0.58751,0.07254 1.56541,0.13854c0.0793,-0.55484 0.2113,-1.32775 0.39625,-2.31827c0.40932,-1.62488 0.83891,-3.68567 1.2881,-6.18235c-0.13223,-0.02613 -0.27078,-0.03965 -0.41608,-0.03965c-0.25118,0 -0.62423,0.07276 -1.11982,0.21806c-0.49515,0.14553 -0.86189,0.21806 -1.09978,0.21806c-0.09236,0 -0.2246,-0.07231 -0.39625,-0.21806c-0.05294,-0.15859 -0.01667,-0.30029 0.10881,-0.42599c0.12548,-0.12548 0.26424,-0.20139 0.4163,-0.22797c0.15183,-0.02636 0.39287,-0.07254 0.72335,-0.13877c0.56791,-0.10565 1.25476,-0.18472 2.06056,-0.23789c0.38296,-0.02613 0.5812,-0.03965 0.59449,-0.03965c0.2113,0.02658 0.3699,0.12886 0.47555,0.30705c0.10565,0.17842 0.2113,0.46564 0.31696,0.86189c0.13201,0.48906 0.22099,0.7862 0.26762,0.89185c0.04618,0.10588 0.1221,0.27731 0.22797,0.5152c0.05249,0.15837 0.15161,0.39625 0.29713,0.71321c0.30389,0.72673 0.77921,1.86277 1.42687,3.40813c0.23766,0.63414 0.61432,1.59875 1.12951,2.89316c0.22437,-0.02636 0.5152,-0.13877 0.87158,-0.33678c0.35683,-0.19824 0.62085,-0.29713 0.79296,-0.29713c0.15837,0 0.3102,0.05947 0.45572,0.17819c0.03965,0.03965 0.07209,0.13877 0.09889,0.29713c0.01329,0.17211 -0.00653,0.29105 -0.05902,0.35706zM237.99201,177.78756c-0.2255,-0.4359 -0.51001,-1.09685 -0.85423,-1.98239c-0.13246,-0.30389 -0.48974,-1.09662 -1.07252,-2.37887l-0.97993,4.99562c1.1865,-0.22437 2.11552,-0.39625 2.78796,-0.51542c0.07907,-0.05249 0.11872,-0.09236 0.11872,-0.11894z" fill="#ffffff" stroke="none" stroke-width="1"/><path d="M256.31065,173.18046c-0.00912,0.03877 -0.01597,0.07755 -0.02737,0.11632c-0.03421,0.14369 -0.10492,0.48353 -0.17562,1.14725c0,0.01141 0,0.02053 -0.00228,0.02737c0.39002,1.56919 -0.26685,2.52485 -0.70249,2.96048c-0.02737,0.02965 -0.05702,0.05702 -0.08895,0.08439c-0.42651,0.38773 -1.17233,0.85074 -2.28536,0.85074c-0.55424,0 -1.07198,-0.12316 -1.52357,-0.34896c0.01141,0.62266 0.01824,1.48024 0.01824,2.67082c0.41055,0.14369 0.78688,0.37634 1.10619,0.68196c0.63406,0.60898 0.98074,1.42322 0.98074,2.29221c0,1.29093 -0.74354,2.41309 -1.94096,2.92627c-0.02965,0.01368 -0.06158,0.02737 -0.09123,0.03877c-0.40142,0.15281 -0.85302,0.22808 -1.38217,0.22808c-0.19159,0 -0.39686,-0.00912 -0.62038,-0.02965c-0.13685,-0.00684 -0.33756,-0.00456 -0.57476,0.00228c-0.43107,0.0479 -1.03777,0.09579 -1.84973,0.14141c-0.01597,0 -0.03193,0.00228 -0.05018,0.00228c-0.1072,0.00456 -0.20983,0.00684 -0.31019,0.00684c-1.45287,0 -2.51344,-0.46072 -3.15435,-1.3662c-0.01368,-0.01825 -0.02509,-0.03649 -0.0365,-0.05474c-0.65231,-0.9739 -0.67055,-2.20554 -0.05018,-3.21137c0.00456,-0.01141 0.0114,-0.02052 0.01824,-0.03193c0.39458,-0.62038 0.97162,-1.06286 1.71973,-1.32287c0.00912,-0.4402 0.00684,-0.99215 -0.00684,-1.64674c-0.37177,0.1551 -0.80056,0.24633 -1.28181,0.24633c-1.27041,0 -2.31958,-0.75494 -2.6845,-1.90219c-0.07527,-0.23264 -0.14597,-0.57248 -0.31019,-1.33883c-0.00684,-0.02737 -0.0114,-0.05474 -0.01596,-0.08211l-0.33756,-1.88622c-0.01141,-0.04106 -0.02737,-0.08895 -0.04562,-0.14369c-0.17562,-0.4995 -0.25773,-0.92373 -0.25773,-1.33427c0,-0.50862 0.14825,-1.27725 0.85074,-2.0436c0.35352,-0.38773 0.99671,-0.88951 2.03219,-1.05145c0.12772,-0.02053 0.25773,-0.03193 0.38774,-0.03193h2.52257c0.05702,0 0.11404,0.00228 0.17106,0.00684c0.9625,0.03421 1.82464,0.03193 2.56362,-0.00228c1.0332,-0.04562 2.06413,-0.13457 3.07452,-0.26457c0.11404,-0.03649 0.2372,-0.07299 0.36949,-0.10492c0.12545,-0.03193 0.25317,-0.05246 0.38089,-0.06614c0.97162,-0.08895 1.8771,0.19158 2.58187,0.79372c0.87355,0.75038 1.259,1.88622 1.02864,3.04031z" fill="#ffa000" stroke="none" stroke-width="1"/><path d="M253.85012,172.68872c-0.09351,0.37474 -0.1738,0.88267 -0.24063,1.52472c-0.02714,0.32114 -0.01391,0.58183 0.04014,0.78254c0.09306,0.33459 0.0869,0.55538 -0.02007,0.66212c-0.14734,0.13366 -0.34782,0.20048 -0.60191,0.20048c-0.29445,0 -0.48877,-0.08736 -0.58183,-0.26252c-0.01391,-0.53873 -0.00707,-1.04415 0.02007,-1.51582c0.02623,-0.57933 0.04014,-0.88244 0.04014,-0.90935c-0.01391,0 -0.03375,-0.01346 -0.06021,-0.0406c-1.24418,0.05406 -2.41446,0.13434 -3.51107,0.24154c-0.02691,0.13434 -0.02691,0.3485 0,0.64319c0.05314,0.41556 0.08029,0.65687 0.08029,0.72347c-0.05337,0.41556 -0.08029,1.03184 -0.08029,1.8495c0.05314,0.34851 0.08029,1.84289 0.08029,4.48292v1.46769c0,0.22785 0.03307,0.38865 0.09944,0.48239h1.23186c0.22512,-0.02669 0.40712,0.02691 0.54648,0.16057c0.1389,0.13388 0.20847,0.29422 0.20847,0.48125c0,0.294 -0.14027,0.50155 -0.42126,0.6222c-0.17402,0.0666 -0.48148,0.08029 -0.92281,0.04014c-0.21394,-0.01368 -0.52846,-0.01368 -0.94311,0c-0.37451,0.04653 -0.97618,0.09328 -1.80548,0.14027c-0.72233,0.02669 -1.16366,-0.07367 -1.32423,-0.30084c-0.1072,-0.16034 -0.1072,-0.32775 0,-0.50155c0.18703,-0.294 0.67535,-0.44134 1.46473,-0.44134c0.28077,0 0.45434,-0.02326 0.52139,-0.07002c0.06683,-0.04676 0.10036,-0.13708 0.10036,-0.27073c0,-0.11997 0,-0.23333 0,-0.3403c0,-0.20003 0,-0.49379 0,-0.88085c0.04014,-0.68036 0.04014,-1.6951 0,-3.04328c-0.0536,-1.93526 -0.02691,-3.63674 0.08029,-5.10512c-0.01346,-0.01323 -0.03353,-0.0333 -0.06067,-0.06021c-0.48421,0.02691 -1.26425,0.01346 -2.3401,-0.04037c-0.12111,0 -0.53165,0.02714 -1.23072,0.08051c0.1738,1.21726 0.28077,2.13346 0.32091,2.7486c0,0.08029 -0.01346,0.26092 -0.04014,0.54169c-0.01346,0.20048 -0.18064,0.30084 -0.50155,0.30084c-0.17402,0 -0.27415,-0.05976 -0.30084,-0.17904c-0.01346,-0.02623 -0.09374,-0.38477 -0.24085,-1.07449c-0.08029,-0.45091 -0.1941,-1.08771 -0.34098,-1.91017c0,-0.05246 -0.04698,-0.21827 -0.14027,-0.49721c-0.07983,-0.22557 -0.11974,-0.398 -0.11974,-0.51729c0,-0.0926 0.06318,-0.20915 0.19067,-0.34805c0.12704,-0.13913 0.31772,-0.22899 0.5718,-0.26891c0.04014,0 0.10332,0 0.19067,0c0.08667,0 0.15692,0 0.21052,0c1.59177,0 2.28719,0 2.08648,0c1.08338,0.04037 2.04634,0.04037 2.88887,0c1.20358,-0.05314 2.3937,-0.16034 3.57105,-0.32091c0.08029,-0.04014 0.20048,-0.08029 0.36082,-0.1202c0.29445,-0.02669 0.53508,0.04014 0.72256,0.20071c0.18703,0.16011 0.25385,0.37428 0.20048,0.64182z" fill="#ffffff" stroke="none" stroke-width="1"/><path d="M263.52329,182.67173c-0.13549,1.46136 -0.57486,2.57044 -1.33942,3.37757c-0.44518,0.47034 -1.10521,0.84197 -2.20462,1.23683c-0.02129,0.00774 -0.04452,0.01548 -0.06775,0.02323c-0.52648,0.16839 -1.10134,0.2555 -1.70717,0.2555c-0.92327,0 -1.78073,-0.18194 -2.54915,-0.54002c-1.13618,-0.53035 -1.70137,-1.27167 -1.98203,-1.89686c-0.04065,-0.06775 -0.08323,-0.13743 -0.12388,-0.21291c-0.11613,-0.21098 -0.19743,-0.43937 -0.23614,-0.67745c-0.05613,-0.33292 -0.14517,-0.83423 -0.26711,-1.50007c-0.02323,-0.12775 -0.03484,-0.2555 -0.03484,-0.38518v-1.68395c0,-0.20904 0.01742,-0.51486 0.14323,-1.34329c0.12194,-0.811 0.1742,-1.06263 0.27098,-1.31038c0.25356,-0.67551 1.0123,-2.66141 2.8511,-3.05433c0.6039,-0.12775 1.28328,-0.14517 1.92589,-0.07549c0.45486,-0.72971 1.2678,-1.16521 2.19107,-1.16521c1.60265,0 2.48915,1.05682 2.6556,2.10203c0.01742,0.11033 0.02516,0.22259 0.02516,0.33485v2.68851c0,0.00194 0,0.00387 0,0.00387c0,0.00194 0,0.00194 0,0.00387c0,0 0,0 0,0.00194c0,0.17614 -0.02323,0.34453 -0.06194,0.50906c0.37357,0.42389 0.58067,0.94649 0.59035,1.50588c0.01161,0.56132 -0.01548,1.16909 -0.07936,1.80202z" fill="#ffa000" stroke="none" stroke-width="1"/><path d="M261.47332,180.9061c0.01103,0.47673 -0.01142,0.99334 -0.06813,1.54923c-0.09117,0.9763 -0.34627,1.6855 -0.76629,2.12816c-0.19317,0.2044 -0.65267,0.43705 -1.3789,0.69797c-0.31801,0.1022 -0.6699,0.1533 -1.05566,0.1533c-0.6128,0 -1.16347,-0.11342 -1.65143,-0.34066c-0.53364,-0.2495 -0.86268,-0.57293 -0.98753,-0.9705c-0.04529,-0.05671 -0.09659,-0.13607 -0.1531,-0.23827c-0.0571,-0.34047 -0.14768,-0.85107 -0.27253,-1.5322v-1.6855c0,-0.15891 0.03968,-0.49938 0.11923,-1.02159c0.07916,-0.52183 0.13046,-0.8112 0.1533,-0.8681c0.39718,-1.05566 0.83423,-1.6344 1.31077,-1.73679c0.21543,-0.0451 0.45389,-0.06813 0.715,-0.06813c0.83984,0 1.60052,0.2044 2.28146,0.613c0.0451,0.02284 0.102,0.03407 0.17014,0.03407c0.01142,-0.03407 0.02265,-0.17575 0.03426,-0.42563c0.01123,0 0.01123,-0.1984 0,-0.59577c-0.01161,-0.27253 0.01529,-0.46531 0.08052,-0.57893c0.06484,-0.11323 0.19511,-0.17033 0.38982,-0.17033c0.33485,0 0.51873,0.1022 0.55125,0.30659c0,0.01142 0,0.43144 0,1.25986c0,0.62442 0,1.01598 0,1.1747c0,0.19317 0,0.27834 0,0.2553c-0.04568,0.17033 -0.12504,0.27233 -0.23846,0.3064c-0.30621,0.1022 -0.51641,0.1082 -0.62984,0.01703c-0.05691,0 -0.11904,-0.01703 -0.18736,-0.0511c-0.05691,-0.15872 -0.18156,-0.36853 -0.37453,-0.62984c-0.2613,-0.21543 -0.60177,-0.40279 -1.0214,-0.5619c-0.42021,-0.15872 -0.77771,-0.23827 -1.07269,-0.23827c-0.37473,0 -0.67532,0.28937 -0.90236,0.8683c-0.31801,0.79455 -0.4597,1.82157 -0.42563,3.08162c0.02265,0.55628 0.03968,0.90817 0.05129,1.05547c0.05652,0.46551 0.18156,0.86268 0.37453,1.19173c0.13626,0.22724 0.34608,0.4146 0.63003,0.5619c0.28356,0.14768 0.5617,0.22704 0.83423,0.23827c1.35084,0.05691 2.13939,-0.53906 2.36682,-1.78769c0.12484,-0.66951 0.13607,-1.23141 0.03407,-1.6855c-0.02303,-0.09078 -0.01181,-0.21291 0.03407,-0.36621c0.04491,-0.1531 0.24388,-0.24679 0.59577,-0.28085c0.07936,0 0.17575,0.03697 0.28956,0.11071c0.11265,0.07433 0.16975,0.15078 0.16975,0.23014z" fill="#ffffff" stroke="none" stroke-width="1"/><path d="M275.05075,188.55645c-0.40638,0.44127 -1.15347,0.96259 -2.41777,0.96259h-0.34686c-0.21345,0.01231 -0.3797,0.01847 -0.51927,0.01847c-0.08415,0 -0.1724,0.00616 -0.26271,0.01437c-0.06978,0.02463 -0.20935,0.07389 -0.45769,0.17035c-0.67525,0.27092 -1.19862,0.39407 -1.69942,0.39407c-0.70193,0 -1.36282,-0.2504 -1.90876,-0.72246c-0.32223,-0.27708 -0.57058,-0.60957 -0.73682,-0.97696c-0.26066,-0.02052 -0.5911,-0.05131 -1.0139,-0.08825h-1.06932c-0.04926,0 -0.09646,-0.00205 -0.14367,-0.00616c-0.53363,-0.03284 -1.04879,-0.18677 -1.52701,-0.45769c-0.8887,-0.50285 -1.41823,-1.36897 -1.41823,-2.3172c0,-1.03443 0.57879,-1.95597 1.54959,-2.46703c0.03079,-0.01847 0.06363,-0.03489 0.09646,-0.04926c0.06978,-0.03284 0.13957,-0.06157 0.20935,-0.09031c0.00205,-0.05131 0.00205,-0.10467 0.0041,-0.15804v-1.46544c0,-0.06157 0.00205,-0.12109 0.00616,-0.18061c-0.11494,-0.48232 -0.10262,-0.97491 0.03694,-1.43055c0,-0.02668 0,-0.06157 -0.00205,-0.10673c-0.0041,-0.04515 -0.0041,-0.09031 -0.0041,-0.13341c0,-0.15599 0.01026,-0.3366 0.039,-0.60136c0.00616,-0.06773 0.01231,-0.12109 0.01437,-0.16419c-0.00205,-0.04926 -0.01437,-0.27708 -0.07799,-1.00569c-1.20478,-0.4659 -1.78972,-1.50443 -1.92108,-2.42598c-0.06363,-0.44333 0.00616,-0.89897 0.20319,-1.3033c0.55621,-1.14731 1.6871,-1.83282 3.02529,-1.83282c0.0821,0 0.16419,0.0041 0.24424,0.01231c0.0862,0.00821 0.35097,0.03079 0.79019,0.06773c0.37765,0.03284 0.58494,0.039 0.69578,0.039h0.07389c0.03489,-0.0041 0.06157,-0.00616 0.09646,-0.00821c0.3797,-0.02052 0.6342,-0.03489 0.76145,-0.0431c0.00821,0 0.01847,-0.00205 0.02668,-0.00205c0.0431,-0.0431 0.08825,-0.0862 0.13546,-0.12725c0.65678,-0.57673 1.47775,-0.87844 2.37467,-0.87844c0.30992,0 0.5439,0.0041 0.71835,0.01231c0.13957,0.00616 0.25245,0.01642 0.35712,0.03079c0.02463,0.00205 0.05131,0.00616 0.07799,0.01231h0.83329c0.039,-0.0041 0.09031,-0.01026 0.15599,-0.01642c0.25655,-0.02668 0.45975,-0.039 0.63831,-0.039c1.28277,0 2.31515,0.6301 2.78105,1.69326c0.17856,0.38791 0.27092,0.79019 0.27092,1.19657c0,0.95438 -0.52953,1.96828 -1.68094,2.45061c0.03694,0.74914 0.05542,1.48186 0.05542,2.1961v4.7206c0.0041,0.04105 0.01231,0.09031 0.02052,0.14778c0.00205,0.01437 0.0041,0.03079 0.00616,0.04515c0.02052,0.14778 0.03694,0.29555 0.04926,0.44333c0.93386,0.40433 1.56601,1.25609 1.65016,2.34388c0.04515,0.53979 -0.06157,1.33613 -0.79019,2.12632z" fill="#ffa000" stroke="none" stroke-width="1"/><path d="M273.59025,186.61198c0.0119,0.12007 -0.05439,0.25861 -0.19868,0.415c-0.14449,0.1564 -0.39735,0.2348 -0.75817,0.2348c-0.08436,0 -0.22289,0 -0.41521,0c-0.19252,0.0119 -0.34296,0.01806 -0.45133,0.01806c-0.22864,0 -0.46344,0.01806 -0.70398,0.05439c-0.13259,0.02381 -0.41521,0.12007 -0.84868,0.28878c-0.38524,0.15619 -0.67402,0.2348 -0.86654,0.2348c-0.1566,0 -0.30109,-0.05726 -0.43327,-0.17158c-0.13259,-0.11453 -0.19847,-0.24999 -0.19847,-0.40618c0,-0.25265 0.29473,-0.45113 0.8846,-0.59562c0.85443,-0.21674 1.29365,-0.33106 1.31787,-0.34296c-0.02422,-0.77007 -0.05418,-1.65467 -0.0901,-2.654c-0.03612,-0.93878 -0.05439,-1.38396 -0.05439,-1.33593v-1.01103c0,-0.01211 0,-0.10221 0,-0.27092c0.01211,-0.13238 0.01211,-0.22823 0,-0.28878c-0.01211,-0.10816 -0.05418,-0.17425 -0.12622,-0.19847c-0.01211,-0.01211 -0.19252,-0.01827 -0.54164,-0.01827c-0.60198,0.01231 -1.29981,0.09667 -2.0941,0.25265c-0.30109,0.07245 -0.75242,0.17487 -1.3542,0.30704v2.58155c0.0119,0.04823 0.01806,0.28303 0.01806,0.70419c0,0.33721 0.03633,0.54164 0.10837,0.61368c0.06014,0.02422 0.37908,0.04823 0.95684,0.07245c0.39715,0.01211 0.64364,0.1566 0.74011,0.43306c0.02381,0.07245 -0.00328,0.18061 -0.08128,0.32511c-0.0784,0.14429 -0.15947,0.2348 -0.24383,0.27072c-0.19252,0.07225 -0.3249,0.10816 -0.39715,0.10816c-0.26497,-0.01211 -0.92072,-0.06629 -1.96787,-0.16235h-1.17358c-0.19252,-0.01231 -0.37908,-0.06958 -0.5597,-0.17158c-0.18061,-0.10221 -0.27072,-0.21941 -0.27072,-0.3522c0,-0.19231 0.11432,-0.34871 0.34296,-0.46919c0.18061,-0.08415 0.37929,-0.12643 0.59582,-0.12643c0.08394,0 0.2348,0.00328 0.45113,0.00903c0.21674,0.00616 0.37293,0.00328 0.46939,-0.00903c-0.02422,-0.46734 -0.02422,-1.18077 0,-2.14028c0,0.01231 0,-0.4854 0,-1.49232c0,-0.03592 0.01498,-0.11083 0.04536,-0.22495c0.02997,-0.11391 0.04515,-0.20093 0.04515,-0.26066c-0.04823,-0.04803 -0.09667,-0.11986 -0.14449,-0.21592c-0.02422,-0.09585 -0.02422,-0.17959 0,-0.25204c0.08415,-0.1919 0.11432,-0.49135 0.0901,-0.89917c0,-0.07184 0.00924,-0.19457 0.0273,-0.36841c0.01806,-0.17384 0.02709,-0.30294 0.02709,-0.38688c0,-0.15578 -0.03017,-0.56935 -0.09031,-1.2409v-1.49274c0,-0.07163 -0.0236,-0.18554 -0.07081,-0.34153c-0.33085,0.03612 -0.57324,0.05418 -0.72656,0.05418c-0.68551,0 -1.06357,-0.2465 -1.13418,-0.74011c0.18041,-0.37272 0.51126,-0.5597 0.99297,-0.5597c-0.01231,0 0.27072,0.02422 0.84848,0.07225c0.54164,0.04823 0.93263,0.06034 1.17358,0.03612c0.67381,-0.03612 0.97491,-0.05418 0.90246,-0.05418c0.66191,0 0.95684,0.19868 0.8848,0.59582c-0.06034,0.28878 -0.33721,0.43943 -0.83062,0.45113c-0.37313,0.01231 -0.7399,0.02422 -1.10113,0.03612c0.06321,0.42157 0.10529,0.89096 0.12643,1.40818c0,0.3249 0,0.78855 0,1.39011c0,0.6498 0,1.11919 0,1.40797c0.0119,0.01231 0.02997,0.02422 0.05418,0.03612c0.19252,0.01231 0.38504,0.01806 0.57755,0.01806c0.44517,0 1.01698,-0.03612 1.71501,-0.10816c0.93878,-0.10816 1.50998,-0.1683 1.71481,-0.18061c0.06014,-0.38504 0.09031,-0.84232 0.09031,-1.37205c0,-0.99892 -0.08436,-2.11811 -0.25265,-3.35799c0.0119,0 -0.22864,0 -0.72225,0c-0.25265,0 -0.4815,-0.04618 -0.68613,-0.13895c-0.20463,-0.09277 -0.30684,-0.28159 -0.30684,-0.56647c0,-0.12376 0.04207,-0.22269 0.12643,-0.29678c0.24055,-0.21037 0.53527,-0.31566 0.8846,-0.31566c0.65001,0 0.91456,0.01806 0.79429,0.05418h1.24562c0.04782,0 0.15927,-0.00903 0.33393,-0.02709c0.17446,-0.01806 0.30992,-0.02709 0.40618,-0.02709c0.38504,0 0.62579,0.12089 0.72225,0.36164c0.04782,0.09667 0.07225,0.18718 0.07225,0.27113c0,0.26517 -0.2467,0.42198 -0.74011,0.47021c-0.36102,0.01231 -0.72225,0.02422 -1.08307,0.03612c0.13238,1.43404 0.19868,2.81409 0.19868,4.13997v4.791c0,0.07245 0.01539,0.2112 0.04659,0.41582c0.04105,0.31341 0.06178,0.62066 0.06178,0.92195c-0.01211,0.54246 -0.01211,0.96444 0,1.26574c0.02401,0.03612 0.04782,0.06588 0.07225,0.0901c0.58966,-0.08436 0.87844,-0.12622 0.86674,-0.12622c0.43327,0.00041 0.6617,0.17466 0.68592,0.52399z" fill="#ffffff" stroke="none" stroke-width="1"/></g></g></svg>